<svg width="20" height="20" viewBox="0 0 20 20" fill="none" xmlns="http://www.w3.org/2000/svg">
<path d="M9.9979 2C13.1469 2 15.7418 4.33488 15.9824 7.3554L15.9958 7.57762L16.0003 7.80214L15.9993 11.398L16.9247 13.6202C16.9472 13.6743 16.9649 13.7302 16.9776 13.7871L16.9929 13.8733L17.0015 14.0046C17.0015 14.4526 16.705 14.8387 16.2524 14.9677L16.136 14.9945L16.0015 15.0046L12.4999 15.004L12.4949 15.1653C12.4098 16.469 11.3254 17.5 10.0003 17.5C8.67478 17.5 7.59022 16.4685 7.50558 15.1644L7.49986 15.004L3.99915 15.0046C3.9112 15.0046 3.82383 14.993 3.73927 14.9702L3.61481 14.9277C3.20403 14.7567 2.96206 14.3392 3.01246 13.8757L3.03354 13.7483L3.07596 13.6202L3.99926 11.401L4.00035 7.79281L4.00465 7.56824C4.12726 4.45115 6.77129 2 9.9979 2ZM11.4999 15.004H8.49986L8.50722 15.1454C8.57576 15.8581 9.143 16.425 9.8558 16.4931L10.0003 16.5C10.78 16.5 11.4207 15.9051 11.4934 15.1445L11.4999 15.004ZM9.9979 3C7.37535 3 5.22741 4.92372 5.0174 7.38498L5.00417 7.59723L5.00026 7.80214V11.5L4.96185 11.6922L3.99914 14.0046L15.9569 14.0066L16.0021 14.0045L15.0387 11.6922L15.0003 11.5L15.0004 7.81241L14.9963 7.60831C14.8911 5.0349 12.6949 3 9.9979 3Z" fill="#242424"/>
</svg>
